<?xml version="1.0" encoding="UTF-8" standalone="no"?>
<!-- Created with Inkscape (http://www.inkscape.org/) -->
<svg
   xmlns:svg="http://www.w3.org/2000/svg"
   xmlns="http://www.w3.org/2000/svg"
   xmlns:xlink="http://www.w3.org/1999/xlink"
   version="1.0"
   width="130"
   height="185"
   id="svg2">
  <defs
     id="defs4">
    <linearGradient
       x1="19"
       y1="149.5"
       x2="125"
       y2="149.5"
       id="lg_bf"
       xlink:href="#linearGradient12103"
       gradientUnits="userSpaceOnUse">
      <stop
         style="stop-color:#fae693;stop-opacity:1"
         offset="0"
         id="stop12105" />
      <stop
         style="stop-color:#fffdf3;stop-opacity:1"
         offset="0.5"
         id="stop12111" />
      <stop
         style="stop-color:#fef2c5;stop-opacity:1"
         offset="1"
         id="stop12107" />
    </linearGradient>
    <linearGradient
       id="linearGradient10145">
      <stop
         style="stop-color:#f5da73;stop-opacity:1"
         offset="0"
         id="stop10147" />
      <stop
         style="stop-color:#5f5739;stop-opacity:1"
         offset="1"
         id="stop10149" />
    </linearGradient>
    <linearGradient
       x1="92.790001"
       y1="97.160004"
       x2="93"
       y2="96.400002"
       id="lg_sr"
       xlink:href="#linearGradient10145"
       gradientUnits="userSpaceOnUse" />
    <linearGradient
       x1="16.73"
       y1="101.6"
       x2="17"
       y2="100.7"
       id="lg_sl"
       xlink:href="#linearGradient10145"
       gradientUnits="userSpaceOnUse" />
    <radialGradient
       cx="75"
       cy="47"
       r="58"
       fx="75"
       fy="47"
       id="rg_ht"
       gradientUnits="userSpaceOnUse">
      <stop
         style="stop-color:#4c4c4c;stop-opacity:1"
         offset="0"
         id="stop4265" />
      <stop
         style="stop-color:#4c4c4c;stop-opacity:1"
         offset="0.31034482"
         id="stop2272" />
      <stop
         style="stop-color:#cccccc;stop-opacity:1"
         offset="0.48275861"
         id="stop4271" />
      <stop
         style="stop-color:#ffffff;stop-opacity:1"
         offset="0.65517241"
         id="stop4267" />
      <stop
         style="stop-color:#cccccc;stop-opacity:1"
         offset="0.82758623"
         id="stop4275" />
      <stop
         style="stop-color:#4c4c4c;stop-opacity:1"
         offset="1"
         id="stop4269" />
    </radialGradient>
    <linearGradient
       id="linearGradient3256">
      <stop
         style="stop-color:#4c4c4c;stop-opacity:1"
         offset="0"
         id="stop3258" />
      <stop
         style="stop-color:#cccccc;stop-opacity:1"
         offset="0.5"
         id="stop3264" />
      <stop
         style="stop-color:#ffffff;stop-opacity:1"
         offset="1"
         id="stop3260" />
    </linearGradient>
    <linearGradient
       x1="123"
       y1="80.791756"
       x2="143"
       y2="80.791756"
       id="lg_hr"
       xlink:href="#linearGradient3256"
       gradientUnits="userSpaceOnUse"
       gradientTransform="matrix(1,0,0,1.0080742,-30.200001,-8.6605754)" />
    <linearGradient
       x1="46.5"
       y1="82.956146"
       x2="67.5"
       y2="82.956146"
       id="lg_hl"
       xlink:href="#linearGradient3256"
       gradientUnits="userSpaceOnUse"
       gradientTransform="matrix(1,0,0,1.0015687,-30.200001,-7.9739891)" />
  </defs>
  <path
     d="M 110.94,90.19 L 124.47,99.88 C 89.67,103.84 54.88,106.81 19.09,106.81 L 5.5,95.16 C 40.31,93.17 75.13,91.18 110.94,90.19 z "
     style="fill:#f5db72"
     id="body_top" />
  <path
     d="M 124.81,100.22 L 124.81,168.84 C 89.93,176.81 55.05,182.3 19.19,182.81 L 19.19,107.19 C 55.06,107.18 89.94,104.2 124.81,100.22 z "
     style="fill:url(#lg_bf)"
     id="body_front" />
  <path
     d="M 5.19,95.44 L 18.81,107.09 L 18.81,182.5 L 5.19,167.91 L 5.19,95.44 z "
     style="fill:#ac8e14"
     id="body_left" />
  <path
     d="M 23,94.1875 C 17.165693,94.516042 11.329144,94.823012 5.5,95.15625 L 11.3125,100.125 L 23,103.3125 L 23,94.1875 z "
     style="fill:url(#lg_sl)"
     id="shadow_left" />
  <path
     d="M 97,90.625 C 88.810758,90.90902 80.67228,91.260979 72.5625,91.625 L 97,98.3125 L 97,90.625 z "
     style="fill:url(#lg_sr)"
     id="shadow_right" />
  <path
     d="M 17,48.9 L 37,48.9 L 37,99.6 C 37,105 24,105 17,100.7 L 17,48.9 z "
     style="fill:url(#lg_hl)"
     id="hoop_left" />
  <path
     d="M 93,48.9 L 113,48.9 L 113,95.3 C 113,100.2 98.7,100.2 93,96.4 L 93,48.9 z "
     style="fill:url(#lg_hr)"
     id="hoop_right" />
  <path
     d="M 113,49 L 93,49 C 93,33.544 80.456,21 65,21 C 49.544,21 37,33.544 37,49 L 17,49 C 17,22.504 38.504,1 65,1 C 91.496,1 113,22.504 113,49 z "
     style="fill:url(#rg_ht)"
     id="hoop_top" />
  <path
     d="M 37,99.6 C 37,105 24,105 17,100.7"
     style="fill:none;stroke:#000000;stroke-width:0.40000001"
     id="notch_left" />
  <path
     d="M 113,95.3 C 113,100.2 98.7,100.2 93,96.4"
     style="fill:none;stroke:#000000;stroke-width:0.40000001"
     id="notch_right" />
</svg>
